<svg width="44" height="52" viewBox="0 0 44 52" fill="none" xmlns="http://www.w3.org/2000/svg">
<path d="M1 29.1293L5.3649 33.7852L4.58891 42.903L22.1455 50.0808L39.4111 42.903L38.6351 33.7852L43 29.1293L39.8961 21.6605L38.8291 22.1455L37.0831 11.8637L39.4111 8.46882H35.5312L37.0831 2.26097L25.2494 5.75289L27.8684 1L7.20785 11.2818L5.0739 22.1455L4.10393 21.6605L1 29.1293Z"   stroke-width="2" stroke-linecap="round" stroke-linejoin="round"/>
<path d="M19.3019 31.1313L21.9209 33.7503M21.9209 33.7503L24.2488 31.1313M21.9209 33.7503V37.3392M17.168 38.1152L25.8008 37.1452C26.7384 36.7693 28.1287 35.5835 26.1888 33.8473"  stroke-width="2" stroke-linecap="round" stroke-linejoin="round"/>
<path d="M10.5059 31.8452C10.7944 32.6591 11.8524 33.7985 13.4875 34.5799C12.4295 37.5099 12.9088 45.5185 21.7576 46.0069"  stroke-width="2" stroke-linecap="round" stroke-linejoin="round"/>
<path d="M33.2031 31.8452C32.9146 32.6591 31.8566 33.7985 30.2215 34.5799C31.2795 37.5099 30.8002 45.5185 21.9514 46.0069"  stroke-width="2" stroke-linecap="round" stroke-linejoin="round"/>
</svg>
